<?xml version="1.0" encoding="UTF-8" standalone="no"?>
<!DOCTYPE svg PUBLIC "-//W3C//DTD SVG 1.1//EN"
 "http://www.w3.org/Graphics/SVG/1.1/DTD/svg11.dtd">
<!-- Generated by graphviz version 16.1.0 (20260904.0139)
 -->
<!-- Title: G Pages: 1 -->
<svg width="503pt" height="819pt"
 viewBox="0.00 0.00 503.00 819.00" xmlns="http://www.w3.org/2000/svg" xmlns:xlink="http://www.w3.org/1999/xlink">
<g id="graph0" class="graph" transform="scale(1 1) rotate(0) translate(21.6 797.37)">
<title>G</title>
<polygon fill="white" stroke="none" points="-21.6,21.6 -21.6,-797.37 481.6,-797.37 481.6,21.6 -21.6,21.6"/>
<!-- start -->
<g id="Customer_Portal_Onboarding_Checklist_start" class="node">
<title>start</title>
<ellipse fill="#37474f" stroke="#37474f" cx="166" cy="-757.77" rx="18" ry="18"/>
<text xml:space="preserve" text-anchor="middle" x="166" y="-754.77" font-family="Helvetica,sans-Serif" font-size="10.00" fill="white">Start</text>
</g>
<!-- Customer_Portal_Onboarding_Checklist_Get_User_Details_Subflow -->
<g id="Customer_Portal_Onboarding_Checklist_Get_User_Details_Subflow" class="node n&#45;subflow">
<title>Customer_Portal_Onboarding_Checklist_Get_User_Details_Subflow</title>
<path fill="#ede7f6" stroke="#5e35b1" stroke-width="1.2" d="M215.06,-698.77C215.06,-698.77 116.94,-698.77 116.94,-698.77 110.94,-698.77 104.94,-692.77 104.94,-686.77 104.94,-686.77 104.94,-672.69 104.94,-672.69 104.94,-666.69 110.94,-660.69 116.94,-660.69 116.94,-660.69 215.06,-660.69 215.06,-660.69 221.06,-660.69 227.06,-666.69 227.06,-672.69 227.06,-672.69 227.06,-686.77 227.06,-686.77 227.06,-692.77 221.06,-698.77 215.06,-698.77"/>
<path fill="none" stroke="#5e35b1" stroke-width="1.2" d="M219.06,-702.77C219.06,-702.77 112.94,-702.77 112.94,-702.77 106.94,-702.77 100.94,-696.77 100.94,-690.77 100.94,-690.77 100.94,-668.69 100.94,-668.69 100.94,-662.69 106.94,-656.69 112.94,-656.69 112.94,-656.69 219.06,-656.69 219.06,-656.69 225.06,-656.69 231.06,-662.69 231.06,-668.69 231.06,-668.69 231.06,-690.77 231.06,-690.77 231.06,-696.77 225.06,-702.77 219.06,-702.77"/>
<text xml:space="preserve" text-anchor="start" x="146.22" y="-687.53" font-family="Helvetica,sans-Serif" font-size="8.00" fill="#555555">SUBFLOW</text>
<text xml:space="preserve" text-anchor="start" x="113.58" y="-677.73" font-family="Helvetica,sans-Serif" font-size="10.00">CALM Portal | Get User</text>
<text xml:space="preserve" text-anchor="start" x="150.72" y="-667.73" font-family="Helvetica,sans-Serif" font-size="10.00">Details</text>
</g>
<!-- start&#45;&gt;Customer_Portal_Onboarding_Checklist_Get_User_Details_Subflow -->
<g id="edge1" class="edge">
<title>start&#45;&gt;Customer_Portal_Onboarding_Checklist_Get_User_Details_Subflow</title>
<path fill="none" stroke="#607d8b" d="M166,-739.52C166,-731.52 166,-721.75 166,-712.49"/>
<polygon fill="#607d8b" stroke="#607d8b" points="168.8,-712.63 166,-704.63 163.2,-712.63 168.8,-712.63"/>
</g>
<!-- Customer_Portal_Onboarding_Checklist_Screen_to_Redirect_to_Contact_Management_Page -->
<g id="Customer_Portal_Onboarding_Checklist_Screen_to_Redirect_to_Contact_Management_Page" class="node n&#45;screen">
<title>Customer_Portal_Onboarding_Checklist_Screen_to_Redirect_to_Contact_Management_Page</title>
<path fill="#e3f2fd" stroke="#1565c0" stroke-width="1.2" d="M403.4,-246.4C403.4,-246.4 270.6,-246.4 270.6,-246.4 264.6,-246.4 258.6,-240.4 258.6,-234.4 258.6,-234.4 258.6,-220.32 258.6,-220.32 258.6,-214.32 264.6,-208.32 270.6,-208.32 270.6,-208.32 403.4,-208.32 403.4,-208.32 409.4,-208.32 415.4,-214.32 415.4,-220.32 415.4,-220.32 415.4,-234.4 415.4,-234.4 415.4,-240.4 409.4,-246.4 403.4,-246.4"/>
<text xml:space="preserve" text-anchor="start" x="320.33" y="-235.16" font-family="Helvetica,sans-Serif" font-size="8.00" fill="#555555">SCREEN</text>
<text xml:space="preserve" text-anchor="start" x="290.03" y="-225.36" font-family="Helvetica,sans-Serif" font-size="10.00">Screen to Redirect to</text>
<text xml:space="preserve" text-anchor="start" x="267.24" y="-215.36" font-family="Helvetica,sans-Serif" font-size="10.00">Contact Management Pageflow</text>
</g>
<!-- Customer_Portal_Onboarding_Checklist_Refresh_Counts_was_selected -->
<g id="Customer_Portal_Onboarding_Checklist_Refresh_Counts_was_selected" class="node n&#45;decision">
<title>Customer_Portal_Onboarding_Checklist_Refresh_Counts_was_selected</title>
<polygon fill="#fff8e1" stroke="#f9a825" stroke-width="1.2" points="315,-167.32 207.68,-133.24 315,-99.16 422.32,-133.24 315,-167.32"/>
<text xml:space="preserve" text-anchor="start" x="269.98" y="-135.24" font-family="Helvetica,sans-Serif" font-size="10.00">Refresh Counts was</text>
<text xml:space="preserve" text-anchor="start" x="296.38" y="-123.24" font-family="Helvetica,sans-Serif" font-size="10.00">selected</text>
</g>
<!-- Customer_Portal_Onboarding_Checklist_Screen_to_Redirect_to_Contact_Management_Page&#45;&gt;Customer_Portal_Onboarding_Checklist_Refresh_Counts_was_selected -->
<g id="edge2" class="edge">
<title>Customer_Portal_Onboarding_Checklist_Screen_to_Redirect_to_Contact_Management_Page&#45;&gt;Customer_Portal_Onboarding_Checklist_Refresh_Counts_was_selected</title>
<path fill="none" stroke="#607d8b" d="M332.65,-208.16C330.36,-198.56 327.45,-186.38 324.66,-174.68"/>
<polygon fill="#607d8b" stroke="#607d8b" points="327.39,-174.07 322.81,-166.94 321.94,-175.37 327.39,-174.07"/>
</g>
<!-- Customer_Portal_Onboarding_Checklist_Onboarding_Checklist_Found -->
<g id="Customer_Portal_Onboarding_Checklist_Onboarding_Checklist_Found" class="node n&#45;decision">
<title>Customer_Portal_Onboarding_Checklist_Onboarding_Checklist_Found</title>
<polygon fill="#fff8e1" stroke="#f9a825" stroke-width="1.2" points="228,-454.72 139.02,-420.64 228,-386.56 316.98,-420.64 228,-454.72"/>
<text xml:space="preserve" text-anchor="start" x="201.87" y="-422.64" font-family="Helvetica,sans-Serif" font-size="10.00">Onboarding</text>
<text xml:space="preserve" text-anchor="start" x="192.15" y="-410.64" font-family="Helvetica,sans-Serif" font-size="10.00">Checklist Found</text>
</g>
<!-- Customer_Portal_Onboarding_Checklist_Get_Count_of_Contact_Types -->
<g id="Customer_Portal_Onboarding_Checklist_Get_Count_of_Contact_Types" class="node n&#45;subflow">
<title>Customer_Portal_Onboarding_Checklist_Get_Count_of_Contact_Types</title>
<path fill="#ede7f6" stroke="#5e35b1" stroke-width="1.2" d="M406.18,-332.62C406.18,-332.62 305.82,-332.62 305.82,-332.62 299.82,-332.62 293.82,-326.62 293.82,-320.62 293.82,-320.62 293.82,-306.54 293.82,-306.54 293.82,-300.54 299.82,-294.54 305.82,-294.54 305.82,-294.54 406.18,-294.54 406.18,-294.54 412.18,-294.54 418.18,-300.54 418.18,-306.54 418.18,-306.54 418.18,-320.62 418.18,-320.62 418.18,-326.62 412.18,-332.62 406.18,-332.62"/>
<path fill="none" stroke="#5e35b1" stroke-width="1.2" d="M410.18,-336.62C410.18,-336.62 301.82,-336.62 301.82,-336.62 295.82,-336.62 289.82,-330.62 289.82,-324.62 289.82,-324.62 289.82,-302.54 289.82,-302.54 289.82,-296.54 295.82,-290.54 301.82,-290.54 301.82,-290.54 410.18,-290.54 410.18,-290.54 416.18,-290.54 422.18,-296.54 422.18,-302.54 422.18,-302.54 422.18,-324.62 422.18,-324.62 422.18,-330.62 416.18,-336.62 410.18,-336.62"/>
<text xml:space="preserve" text-anchor="start" x="336.22" y="-321.38" font-family="Helvetica,sans-Serif" font-size="8.00" fill="#555555">SUBFLOW</text>
<text xml:space="preserve" text-anchor="start" x="302.46" y="-311.58" font-family="Helvetica,sans-Serif" font-size="10.00">Customer Portal | Count</text>
<text xml:space="preserve" text-anchor="start" x="323.76" y="-301.58" font-family="Helvetica,sans-Serif" font-size="10.00">Contact Types</text>
</g>
<!-- Customer_Portal_Onboarding_Checklist_Onboarding_Checklist_Found&#45;&gt;Customer_Portal_Onboarding_Checklist_Get_Count_of_Contact_Types -->
<g id="edge4" class="edge">
<title>Customer_Portal_Onboarding_Checklist_Onboarding_Checklist_Found&#45;&gt;Customer_Portal_Onboarding_Checklist_Get_Count_of_Contact_Types</title>
<path fill="none" stroke="#607d8b" d="M255.77,-396.84C275.03,-381.04 300.8,-359.89 321.39,-342.99"/>
<polygon fill="#607d8b" stroke="#607d8b" points="323.14,-345.17 327.55,-337.93 319.59,-340.84 323.14,-345.17"/>
<text xml:space="preserve" text-anchor="middle" x="312.42" y="-360.46" font-family="Helvetica,sans-Serif" font-size="9.00">Found</text>
</g>
<!-- Customer_Portal_Onboarding_Checklist_Create_New_Onboarding_Checklist_Record -->
<g id="Customer_Portal_Onboarding_Checklist_Create_New_Onboarding_Checklist_Record" class="node n&#45;write">
<title>Customer_Portal_Onboarding_Checklist_Create_New_Onboarding_Checklist_Record</title>
<path fill="#c8e6c9" stroke="#1b5e20" stroke-width="1.2" d="M264.56,-335C264.56,-337.63 236.52,-339.76 202,-339.76 167.48,-339.76 139.44,-337.63 139.44,-335 139.44,-335 139.44,-292.16 139.44,-292.16 139.44,-289.53 167.48,-287.4 202,-287.4 236.52,-287.4 264.56,-289.53 264.56,-292.16 264.56,-292.16 264.56,-335 264.56,-335"/>
<path fill="none" stroke="#1b5e20" stroke-width="1.2" d="M264.56,-335C264.56,-332.37 236.52,-330.24 202,-330.24 167.48,-330.24 139.44,-332.37 139.44,-335"/>
<text xml:space="preserve" text-anchor="start" x="148.08" y="-319.58" font-family="Helvetica,sans-Serif" font-size="10.00">Create New Onboarding</text>
<text xml:space="preserve" text-anchor="start" x="164.21" y="-309.58" font-family="Helvetica,sans-Serif" font-size="10.00">Checklist Record</text>
<text xml:space="preserve" text-anchor="start" x="151.53" y="-301.38" font-family="Helvetica,sans-Serif" font-size="8.00" fill="#555555">create Onboarding Checklist</text>
</g>
<!-- Customer_Portal_Onboarding_Checklist_Onboarding_Checklist_Found&#45;&gt;Customer_Portal_Onboarding_Checklist_Create_New_Onboarding_Checklist_Record -->
<g id="edge3" class="edge">
<title>Customer_Portal_Onboarding_Checklist_Onboarding_Checklist_Found&#45;&gt;Customer_Portal_Onboarding_Checklist_Create_New_Onboarding_Checklist_Record</title>
<path fill="none" stroke="#607d8b" d="M220.41,-388.97C217.32,-376.49 213.74,-362.01 210.56,-349.16"/>
<polygon fill="#607d8b" stroke="#607d8b" points="213.33,-348.71 208.69,-341.62 207.89,-350.05 213.33,-348.71"/>
<text xml:space="preserve" text-anchor="middle" x="234.26" y="-360.46" font-family="Helvetica,sans-Serif" font-size="9.00">otherwise</text>
</g>
<!-- Customer_Portal_Onboarding_Checklist_Refresh_Counts_was_selected&#45;&gt;Customer_Portal_Onboarding_Checklist_Get_User_Details_Subflow -->
<g id="edge6" class="edge">
<title>Customer_Portal_Onboarding_Checklist_Refresh_Counts_was_selected&#45;&gt;Customer_Portal_Onboarding_Checklist_Get_User_Details_Subflow</title>
<path fill="none" stroke="#607d8b" d="M233.47,-141.9C140.14,-152.98 0,-177.71 0,-226.36 0,-594.51 0,-594.51 0,-594.51 0,-638.65 47.26,-659.66 91.34,-669.66"/>
<polygon fill="#607d8b" stroke="#607d8b" points="90.51,-672.35 98.91,-671.26 91.66,-666.87 90.51,-672.35"/>
<text xml:space="preserve" text-anchor="middle" x="31.26" y="-417.94" font-family="Helvetica,sans-Serif" font-size="9.00">Refresh Counts</text>
</g>
<!-- Customer_Portal_Onboarding_Checklist_Update_Verification_Fields_on_Onboarding_Checklist -->
<g id="Customer_Portal_Onboarding_Checklist_Update_Verification_Fields_on_Onboarding_Checklist" class="node n&#45;write">
<title>Customer_Portal_Onboarding_Checklist_Update_Verification_Fields_on_Onboarding_Checklist</title>
<path fill="#c8e6c9" stroke="#1b5e20" stroke-width="1.2" d="M452.61,-47.6C452.61,-50.23 423.2,-52.36 387,-52.36 350.8,-52.36 321.39,-50.23 321.39,-47.6 321.39,-47.6 321.39,-4.76 321.39,-4.76 321.39,-2.13 350.8,0 387,0 423.2,0 452.61,-2.13 452.61,-4.76 452.61,-4.76 452.61,-47.6 452.61,-47.6"/>
<path fill="none" stroke="#1b5e20" stroke-width="1.2" d="M452.61,-47.6C452.61,-44.97 423.2,-42.84 387,-42.84 350.8,-42.84 321.39,-44.97 321.39,-47.6"/>
<text xml:space="preserve" text-anchor="start" x="330.03" y="-32.18" font-family="Helvetica,sans-Serif" font-size="10.00">Update Verification Fields</text>
<text xml:space="preserve" text-anchor="start" x="332.25" y="-22.18" font-family="Helvetica,sans-Serif" font-size="10.00">on Onboarding Checklist</text>
<text xml:space="preserve" text-anchor="start" x="335.41" y="-13.98" font-family="Helvetica,sans-Serif" font-size="8.00" fill="#555555">update Onboarding Checklist</text>
</g>
<!-- Customer_Portal_Onboarding_Checklist_Refresh_Counts_was_selected&#45;&gt;Customer_Portal_Onboarding_Checklist_Update_Verification_Fields_on_Onboarding_Checklist -->
<g id="edge5" class="edge">
<title>Customer_Portal_Onboarding_Checklist_Refresh_Counts_was_selected&#45;&gt;Customer_Portal_Onboarding_Checklist_Update_Verification_Fields_on_Onboarding_Checklist</title>
<path fill="none" stroke="#607d8b" d="M333.92,-104.64C343.2,-91.09 354.45,-74.67 364.2,-60.44"/>
<polygon fill="#607d8b" stroke="#607d8b" points="366.38,-62.23 368.59,-54.05 361.76,-59.06 366.38,-62.23"/>
<text xml:space="preserve" text-anchor="middle" x="374.57" y="-73.06" font-family="Helvetica,sans-Serif" font-size="9.00">otherwise</text>
</g>
<!-- Customer_Portal_Onboarding_Checklist_Get_Count_of_Contact_Types&#45;&gt;Customer_Portal_Onboarding_Checklist_Screen_to_Redirect_to_Contact_Management_Page -->
<g id="edge7" class="edge">
<title>Customer_Portal_Onboarding_Checklist_Get_Count_of_Contact_Types&#45;&gt;Customer_Portal_Onboarding_Checklist_Screen_to_Redirect_to_Contact_Management_Page</title>
<path fill="none" stroke="#607d8b" d="M350.91,-290.01C348.54,-279.53 345.71,-266.98 343.22,-255.95"/>
<polygon fill="#607d8b" stroke="#607d8b" points="345.97,-255.4 341.48,-248.21 340.51,-256.63 345.97,-255.4"/>
</g>
<!-- Customer_Portal_Onboarding_Checklist_Get_Running_User_Contact_Details -->
<g id="Customer_Portal_Onboarding_Checklist_Get_Running_User_Contact_Details" class="node n&#45;read">
<title>Customer_Portal_Onboarding_Checklist_Get_Running_User_Contact_Details</title>
<path fill="#e0f2f1" stroke="#00796b" stroke-width="1.2" d="M233.28,-614.93C233.28,-617.56 203.12,-619.69 166,-619.69 128.88,-619.69 98.72,-617.56 98.72,-614.93 98.72,-614.93 98.72,-572.09 98.72,-572.09 98.72,-569.46 128.88,-567.33 166,-567.33 203.12,-567.33 233.28,-569.46 233.28,-572.09 233.28,-572.09 233.28,-614.93 233.28,-614.93"/>
<path fill="none" stroke="#00796b" stroke-width="1.2" d="M233.28,-614.93C233.28,-612.3 203.12,-610.17 166,-610.17 128.88,-610.17 98.72,-612.3 98.72,-614.93"/>
<text xml:space="preserve" text-anchor="start" x="107.36" y="-599.51" font-family="Helvetica,sans-Serif" font-size="10.00">Get Running User Contact</text>
<text xml:space="preserve" text-anchor="start" x="150.72" y="-589.51" font-family="Helvetica,sans-Serif" font-size="10.00">Details</text>
<text xml:space="preserve" text-anchor="start" x="145.54" y="-581.31" font-family="Helvetica,sans-Serif" font-size="8.00" fill="#555555">get Contact</text>
</g>
<!-- Customer_Portal_Onboarding_Checklist_Get_User_Details_Subflow&#45;&gt;Customer_Portal_Onboarding_Checklist_Get_Running_User_Contact_Details -->
<g id="edge8" class="edge">
<title>Customer_Portal_Onboarding_Checklist_Get_User_Details_Subflow&#45;&gt;Customer_Portal_Onboarding_Checklist_Get_Running_User_Contact_Details</title>
<path fill="none" stroke="#607d8b" d="M166,-656.16C166,-648 166,-638.59 166,-629.61"/>
<polygon fill="#607d8b" stroke="#607d8b" points="168.8,-629.63 166,-621.63 163.2,-629.63 168.8,-629.63"/>
</g>
<!-- Customer_Portal_Onboarding_Checklist_Create_Onboarding_Checklist_Record -->
<g id="Customer_Portal_Onboarding_Checklist_Create_Onboarding_Checklist_Record" class="node n&#45;action">
<title>Customer_Portal_Onboarding_Checklist_Create_Onboarding_Checklist_Record</title>
<polygon fill="#eceff1" stroke="#546e7a" stroke-width="1.2" points="189.17,-250.4 86.83,-250.4 86.83,-204.32 189.17,-204.32 189.17,-250.4"/>
<text xml:space="preserve" text-anchor="start" x="122.89" y="-239.16" font-family="Helvetica,sans-Serif" font-size="8.00" fill="#555555">ACTION</text>
<text xml:space="preserve" text-anchor="start" x="95.47" y="-229.36" font-family="Helvetica,sans-Serif" font-size="10.00">Create Onboarding</text>
<text xml:space="preserve" text-anchor="start" x="100.21" y="-219.36" font-family="Helvetica,sans-Serif" font-size="10.00">Checklist Record</text>
<text xml:space="preserve" text-anchor="start" x="100.21" y="-211.16" font-family="Helvetica,sans-Serif" font-size="8.00" fill="#555555">c:CommitTransaction</text>
</g>
<!-- Customer_Portal_Onboarding_Checklist_Get_Onboarding_Checklist -->
<g id="Customer_Portal_Onboarding_Checklist_Get_Onboarding_Checklist" class="node n&#45;read">
<title>Customer_Portal_Onboarding_Checklist_Get_Onboarding_Checklist</title>
<path fill="#e0f2f1" stroke="#00796b" stroke-width="1.2" d="M231.89,-526.82C231.89,-528.76 202.36,-530.33 166,-530.33 129.64,-530.33 100.11,-528.76 100.11,-526.82 100.11,-526.82 100.11,-495.23 100.11,-495.23 100.11,-493.29 129.64,-491.72 166,-491.72 202.36,-491.72 231.89,-493.29 231.89,-495.23 231.89,-495.23 231.89,-526.82 231.89,-526.82"/>
<path fill="none" stroke="#00796b" stroke-width="1.2" d="M231.89,-526.82C231.89,-524.88 202.36,-523.31 166,-523.31 129.64,-523.31 100.11,-524.88 100.11,-526.82"/>
<text xml:space="preserve" text-anchor="start" x="108.75" y="-512.02" font-family="Helvetica,sans-Serif" font-size="10.00">Get Onboarding Checklist</text>
<text xml:space="preserve" text-anchor="start" x="121.09" y="-503.82" font-family="Helvetica,sans-Serif" font-size="8.00" fill="#555555">get Onboarding Checklist</text>
</g>
<!-- Customer_Portal_Onboarding_Checklist_Create_Onboarding_Checklist_Record&#45;&gt;Customer_Portal_Onboarding_Checklist_Get_Onboarding_Checklist -->
<g id="edge9" class="edge">
<title>Customer_Portal_Onboarding_Checklist_Create_Onboarding_Checklist_Record&#45;&gt;Customer_Portal_Onboarding_Checklist_Get_Onboarding_Checklist</title>
<path fill="none" stroke="#607d8b" d="M131.84,-250.87C121.59,-292.34 104.28,-383.09 127,-454.72 130.26,-465.01 136.21,-475.04 142.49,-483.66"/>
<polygon fill="#607d8b" stroke="#607d8b" points="140.25,-485.35 147.36,-489.96 144.68,-481.92 140.25,-485.35"/>
</g>
<!-- Customer_Portal_Onboarding_Checklist_Get_Onboarding_Checklist&#45;&gt;Customer_Portal_Onboarding_Checklist_Onboarding_Checklist_Found -->
<g id="edge10" class="edge">
<title>Customer_Portal_Onboarding_Checklist_Get_Onboarding_Checklist&#45;&gt;Customer_Portal_Onboarding_Checklist_Onboarding_Checklist_Found</title>
<path fill="none" stroke="#607d8b" d="M179.15,-491.28C186.38,-480.97 195.58,-467.86 204.04,-455.8"/>
<polygon fill="#607d8b" stroke="#607d8b" points="206.29,-457.46 208.59,-449.31 201.71,-454.25 206.29,-457.46"/>
</g>
<!-- Customer_Portal_Onboarding_Checklist_Get_Running_User_Contact_Details&#45;&gt;Customer_Portal_Onboarding_Checklist_Get_Onboarding_Checklist -->
<g id="edge11" class="edge">
<title>Customer_Portal_Onboarding_Checklist_Get_Running_User_Contact_Details&#45;&gt;Customer_Portal_Onboarding_Checklist_Get_Onboarding_Checklist</title>
<path fill="none" stroke="#607d8b" d="M166,-567.04C166,-558.48 166,-548.87 166,-540.12"/>
<polygon fill="#607d8b" stroke="#607d8b" points="168.8,-540.21 166,-532.21 163.2,-540.21 168.8,-540.21"/>
</g>
<!-- Customer_Portal_Onboarding_Checklist_Create_New_Onboarding_Checklist_Record&#45;&gt;Customer_Portal_Onboarding_Checklist_Create_Onboarding_Checklist_Record -->
<g id="edge12" class="edge">
<title>Customer_Portal_Onboarding_Checklist_Create_New_Onboarding_Checklist_Record&#45;&gt;Customer_Portal_Onboarding_Checklist_Create_Onboarding_Checklist_Record</title>
<path fill="none" stroke="#607d8b" d="M182.45,-286.85C175.55,-277.77 167.73,-267.48 160.59,-258.09"/>
<polygon fill="#607d8b" stroke="#607d8b" points="163.03,-256.68 155.96,-252 158.58,-260.06 163.03,-256.68"/>
</g>
<!-- Customer_Portal_Onboarding_Checklist_Update_Verification_Fields_on_Onboarding_Checklist&#45;&gt;Customer_Portal_Onboarding_Checklist_Get_User_Details_Subflow -->
<g id="edge13" class="edge">
<title>Customer_Portal_Onboarding_Checklist_Update_Verification_Fields_on_Onboarding_Checklist&#45;&gt;Customer_Portal_Onboarding_Checklist_Get_User_Details_Subflow</title>
<path fill="none" stroke="#607d8b" d="M417.96,-52.78C437.85,-72.23 460,-100.92 460,-132.24 460,-594.51 460,-594.51 460,-594.51 460,-640.04 328.05,-662.36 240.95,-672.14"/>
<polygon fill="#607d8b" stroke="#607d8b" points="240.77,-669.34 233.12,-673 241.37,-674.91 240.77,-669.34"/>
</g>
</g>
</svg>
