<?xml version="1.0" encoding="UTF-8" standalone="no"?>
<!DOCTYPE svg PUBLIC "-//W3C//DTD SVG 1.1//EN"
 "http://www.w3.org/Graphics/SVG/1.1/DTD/svg11.dtd">
<!-- Generated by graphviz version 16.1.0 (20260904.0139)
 -->
<!-- Title: G Pages: 1 -->
<svg width="947pt" height="801pt"
 viewBox="0.00 0.00 947.00 801.00" xmlns="http://www.w3.org/2000/svg" xmlns:xlink="http://www.w3.org/1999/xlink">
<g id="graph0" class="graph" transform="scale(1 1) rotate(0) translate(21.6 779.64)">
<title>G</title>
<polygon fill="white" stroke="none" points="-21.6,21.6 -21.6,-779.64 925.56,-779.64 925.56,21.6 -21.6,21.6"/>
<!-- start -->
<g id="Tutor_School_Request_Screen_start" class="node">
<title>start</title>
<ellipse fill="#37474f" stroke="#37474f" cx="470" cy="-740.04" rx="18" ry="18"/>
<text xml:space="preserve" text-anchor="middle" x="470" y="-737.04" font-family="Helvetica,sans-Serif" font-size="10.00" fill="white">Start</text>
</g>
<!-- Tutor_School_Request_Screen_Get_School_Tutor_School_Details -->
<g id="Tutor_School_Request_Screen_Get_School_Tutor_School_Details" class="node n&#45;read">
<title>Tutor_School_Request_Screen_Get_School_Tutor_School_Details</title>
<path fill="#e0f2f1" stroke="#00796b" stroke-width="1.2" d="M534.78,-680.28C534.78,-682.91 505.74,-685.04 470,-685.04 434.26,-685.04 405.22,-682.91 405.22,-680.28 405.22,-680.28 405.22,-637.44 405.22,-637.44 405.22,-634.81 434.26,-632.68 470,-632.68 505.74,-632.68 534.78,-634.81 534.78,-637.44 534.78,-637.44 534.78,-680.28 534.78,-680.28"/>
<path fill="none" stroke="#00796b" stroke-width="1.2" d="M534.78,-680.28C534.78,-677.65 505.74,-675.52 470,-675.52 434.26,-675.52 405.22,-677.65 405.22,-680.28"/>
<text xml:space="preserve" text-anchor="start" x="413.86" y="-664.86" font-family="Helvetica,sans-Serif" font-size="10.00">Get School (Tutor School</text>
<text xml:space="preserve" text-anchor="start" x="453.05" y="-654.86" font-family="Helvetica,sans-Serif" font-size="10.00">Details)</text>
<text xml:space="preserve" text-anchor="start" x="427.31" y="-646.66" font-family="Helvetica,sans-Serif" font-size="8.00" fill="#555555">get Tutor School Details</text>
</g>
<!-- start&#45;&gt;Tutor_School_Request_Screen_Get_School_Tutor_School_Details -->
<g id="edge1" class="edge">
<title>start&#45;&gt;Tutor_School_Request_Screen_Get_School_Tutor_School_Details</title>
<path fill="none" stroke="#607d8b" d="M470,-721.86C470,-713.88 470,-704.08 470,-694.66"/>
<polygon fill="#607d8b" stroke="#607d8b" points="472.8,-694.95 470,-686.95 467.2,-694.95 472.8,-694.95"/>
</g>
<!-- Tutor_School_Request_Screen_Approval_Confirmation -->
<g id="Tutor_School_Request_Screen_Approval_Confirmation" class="node n&#45;screen">
<title>Tutor_School_Request_Screen_Approval_Confirmation</title>
<path fill="#e3f2fd" stroke="#1565c0" stroke-width="2.6" d="M712.5,-43.08C712.5,-43.08 597.5,-43.08 597.5,-43.08 591.5,-43.08 585.5,-37.08 585.5,-31.08 585.5,-31.08 585.5,-17 585.5,-17 585.5,-11 591.5,-5 597.5,-5 597.5,-5 712.5,-5 712.5,-5 718.5,-5 724.5,-11 724.5,-17 724.5,-17 724.5,-31.08 724.5,-31.08 724.5,-37.08 718.5,-43.08 712.5,-43.08"/>
<text xml:space="preserve" text-anchor="start" x="638.33" y="-31.84" font-family="Helvetica,sans-Serif" font-size="8.00" fill="#555555">SCREEN</text>
<text xml:space="preserve" text-anchor="start" x="594.14" y="-22.04" font-family="Helvetica,sans-Serif" font-size="10.00">Approval Confirmation from</text>
<text xml:space="preserve" text-anchor="start" x="639.16" y="-12.04" font-family="Helvetica,sans-Serif" font-size="10.00">Screen</text>
</g>
<!-- Tutor_School_Request_Screen_Copy_1_of_Approval_Confirmation -->
<g id="Tutor_School_Request_Screen_Copy_1_of_Approval_Confirmation" class="node n&#45;screen">
<title>Tutor_School_Request_Screen_Copy_1_of_Approval_Confirmation</title>
<path fill="#e3f2fd" stroke="#1565c0" stroke-width="2.6" d="M480.5,-241.36C480.5,-241.36 365.5,-241.36 365.5,-241.36 359.5,-241.36 353.5,-235.36 353.5,-229.36 353.5,-229.36 353.5,-207.28 353.5,-207.28 353.5,-201.28 359.5,-195.28 365.5,-195.28 365.5,-195.28 480.5,-195.28 480.5,-195.28 486.5,-195.28 492.5,-201.28 492.5,-207.28 492.5,-207.28 492.5,-229.36 492.5,-229.36 492.5,-235.36 486.5,-241.36 480.5,-241.36"/>
<text xml:space="preserve" text-anchor="start" x="406.33" y="-230.12" font-family="Helvetica,sans-Serif" font-size="8.00" fill="#555555">SCREEN</text>
<text xml:space="preserve" text-anchor="start" x="362.14" y="-220.32" font-family="Helvetica,sans-Serif" font-size="10.00">Approval Confirmation from</text>
<text xml:space="preserve" text-anchor="start" x="406.88" y="-210.32" font-family="Helvetica,sans-Serif" font-size="10.00">Record</text>
<text xml:space="preserve" text-anchor="start" x="391.88" y="-202.12" font-family="Helvetica,sans-Serif" font-size="8.00" fill="#555555">flowPortalTracker</text>
</g>
<!-- Tutor_School_Request_Screen_saveReminder -->
<g id="Tutor_School_Request_Screen_saveReminder" class="node n&#45;screen">
<title>Tutor_School_Request_Screen_saveReminder</title>
<path fill="#e3f2fd" stroke="#1565c0" stroke-width="2.6" d="M86.88,-42.04C86.88,-42.04 29.12,-42.04 29.12,-42.04 23.12,-42.04 17.12,-36.04 17.12,-30.04 17.12,-30.04 17.12,-18.04 17.12,-18.04 17.12,-12.04 23.12,-6.04 29.12,-6.04 29.12,-6.04 86.88,-6.04 86.88,-6.04 92.88,-6.04 98.88,-12.04 98.88,-18.04 98.88,-18.04 98.88,-30.04 98.88,-30.04 98.88,-36.04 92.88,-42.04 86.88,-42.04"/>
<text xml:space="preserve" text-anchor="start" x="41.33" y="-26.84" font-family="Helvetica,sans-Serif" font-size="8.00" fill="#555555">SCREEN</text>
<text xml:space="preserve" text-anchor="start" x="25.76" y="-17.04" font-family="Helvetica,sans-Serif" font-size="10.00">saveReminder</text>
</g>
<!-- Tutor_School_Request_Screen_School_Approval_Screen -->
<g id="Tutor_School_Request_Screen_School_Approval_Screen" class="node n&#45;screen">
<title>Tutor_School_Request_Screen_School_Approval_Screen</title>
<path fill="#e3f2fd" stroke="#1565c0" stroke-width="1.2" d="M705.28,-236.36C705.28,-236.36 604.72,-236.36 604.72,-236.36 598.72,-236.36 592.72,-230.36 592.72,-224.36 592.72,-224.36 592.72,-212.28 592.72,-212.28 592.72,-206.28 598.72,-200.28 604.72,-200.28 604.72,-200.28 705.28,-200.28 705.28,-200.28 711.28,-200.28 717.28,-206.28 717.28,-212.28 717.28,-212.28 717.28,-224.36 717.28,-224.36 717.28,-230.36 711.28,-236.36 705.28,-236.36"/>
<text xml:space="preserve" text-anchor="start" x="638.33" y="-225.12" font-family="Helvetica,sans-Serif" font-size="8.00" fill="#555555">SCREEN</text>
<text xml:space="preserve" text-anchor="start" x="601.36" y="-215.32" font-family="Helvetica,sans-Serif" font-size="10.00">School Approval Screen</text>
<text xml:space="preserve" text-anchor="start" x="623.88" y="-207.12" font-family="Helvetica,sans-Serif" font-size="8.00" fill="#555555">flowPortalTracker</text>
</g>
<!-- Tutor_School_Request_Screen_Update_Status_on_School_by_Grade -->
<g id="Tutor_School_Request_Screen_Update_Status_on_School_by_Grade" class="node n&#45;write">
<title>Tutor_School_Request_Screen_Update_Status_on_School_by_Grade</title>
<path fill="#c8e6c9" stroke="#1b5e20" stroke-width="1.2" d="M725.63,-132.68C725.63,-135.31 693.97,-137.44 655,-137.44 616.03,-137.44 584.38,-135.31 584.38,-132.68 584.38,-132.68 584.38,-89.84 584.38,-89.84 584.38,-87.21 616.03,-85.08 655,-85.08 693.97,-85.08 725.63,-87.21 725.63,-89.84 725.63,-89.84 725.63,-132.68 725.63,-132.68"/>
<path fill="none" stroke="#1b5e20" stroke-width="1.2" d="M725.63,-132.68C725.63,-130.05 693.97,-127.92 655,-127.92 616.03,-127.92 584.38,-130.05 584.38,-132.68"/>
<text xml:space="preserve" text-anchor="start" x="593.02" y="-117.26" font-family="Helvetica,sans-Serif" font-size="10.00">Update Status on School by</text>
<text xml:space="preserve" text-anchor="start" x="641.1" y="-107.26" font-family="Helvetica,sans-Serif" font-size="10.00">Grade</text>
<text xml:space="preserve" text-anchor="start" x="605.64" y="-99.06" font-family="Helvetica,sans-Serif" font-size="8.00" fill="#555555">update Tutor School Details</text>
</g>
<!-- Tutor_School_Request_Screen_School_Approval_Screen&#45;&gt;Tutor_School_Request_Screen_Update_Status_on_School_by_Grade -->
<g id="edge2" class="edge">
<title>Tutor_School_Request_Screen_School_Approval_Screen&#45;&gt;Tutor_School_Request_Screen_Update_Status_on_School_by_Grade</title>
<path fill="none" stroke="#607d8b" d="M655,-199.97C655,-185.71 655,-165.05 655,-147.36"/>
<polygon fill="#607d8b" stroke="#607d8b" points="657.8,-147.41 655,-139.41 652.2,-147.41 657.8,-147.41"/>
</g>
<!-- Tutor_School_Request_Screen_School_Information -->
<g id="Tutor_School_Request_Screen_School_Information" class="node n&#45;screen">
<title>Tutor_School_Request_Screen_School_Information</title>
<path fill="#e3f2fd" stroke="#1565c0" stroke-width="1.2" d="M184.33,-351.32C184.33,-351.32 107.67,-351.32 107.67,-351.32 101.67,-351.32 95.67,-345.32 95.67,-339.32 95.67,-339.32 95.67,-327.24 95.67,-327.24 95.67,-321.24 101.67,-315.24 107.67,-315.24 107.67,-315.24 184.33,-315.24 184.33,-315.24 190.33,-315.24 196.33,-321.24 196.33,-327.24 196.33,-327.24 196.33,-339.32 196.33,-339.32 196.33,-345.32 190.33,-351.32 184.33,-351.32"/>
<text xml:space="preserve" text-anchor="start" x="129.33" y="-340.08" font-family="Helvetica,sans-Serif" font-size="8.00" fill="#555555">SCREEN</text>
<text xml:space="preserve" text-anchor="start" x="104.31" y="-330.28" font-family="Helvetica,sans-Serif" font-size="10.00">School Information</text>
<text xml:space="preserve" text-anchor="start" x="114.88" y="-322.08" font-family="Helvetica,sans-Serif" font-size="8.00" fill="#555555">flowPortalTracker</text>
</g>
<!-- Tutor_School_Request_Screen_Check_Form_Complete_Checkbox -->
<g id="Tutor_School_Request_Screen_Check_Form_Complete_Checkbox" class="node n&#45;decision">
<title>Tutor_School_Request_Screen_Check_Form_Complete_Checkbox</title>
<polygon fill="#fff8e1" stroke="#f9a825" stroke-width="1.2" points="146,-252.4 38.68,-218.32 146,-184.24 253.33,-218.32 146,-252.4"/>
<text xml:space="preserve" text-anchor="start" x="118.77" y="-220.32" font-family="Helvetica,sans-Serif" font-size="10.00">Check Form</text>
<text xml:space="preserve" text-anchor="start" x="100.98" y="-208.32" font-family="Helvetica,sans-Serif" font-size="10.00">Complete Checkbox</text>
</g>
<!-- Tutor_School_Request_Screen_School_Information&#45;&gt;Tutor_School_Request_Screen_Check_Form_Complete_Checkbox -->
<g id="edge3" class="edge">
<title>Tutor_School_Request_Screen_School_Information&#45;&gt;Tutor_School_Request_Screen_Check_Form_Complete_Checkbox</title>
<path fill="none" stroke="#607d8b" d="M146,-315.12C146,-301.04 146,-280.48 146,-262.01"/>
<polygon fill="#607d8b" stroke="#607d8b" points="148.8,-262.1 146,-254.1 143.2,-262.1 148.8,-262.1"/>
</g>
<!-- Tutor_School_Request_Screen_School_Submission_Confirmation_from_saved_school_record -->
<g id="Tutor_School_Request_Screen_School_Submission_Confirmation_from_saved_school_record" class="node n&#45;screen">
<title>Tutor_School_Request_Screen_School_Submission_Confirmation_from_saved_school_record</title>
<path fill="#e3f2fd" stroke="#1565c0" stroke-width="2.6" d="M522.77,-361.32C522.77,-361.32 417.23,-361.32 417.23,-361.32 411.23,-361.32 405.23,-355.32 405.23,-349.32 405.23,-349.32 405.23,-317.24 405.23,-317.24 405.23,-311.24 411.23,-305.24 417.23,-305.24 417.23,-305.24 522.77,-305.24 522.77,-305.24 528.77,-305.24 534.77,-311.24 534.77,-317.24 534.77,-317.24 534.77,-349.32 534.77,-349.32 534.77,-355.32 528.77,-361.32 522.77,-361.32"/>
<text xml:space="preserve" text-anchor="start" x="453.33" y="-350.08" font-family="Helvetica,sans-Serif" font-size="8.00" fill="#555555">SCREEN</text>
<text xml:space="preserve" text-anchor="start" x="427.48" y="-340.28" font-family="Helvetica,sans-Serif" font-size="10.00">School Submission</text>
<text xml:space="preserve" text-anchor="start" x="413.87" y="-330.28" font-family="Helvetica,sans-Serif" font-size="10.00">Confirmation (from saved</text>
<text xml:space="preserve" text-anchor="start" x="438.32" y="-320.28" font-family="Helvetica,sans-Serif" font-size="10.00">school record)</text>
<text xml:space="preserve" text-anchor="start" x="438.88" y="-312.08" font-family="Helvetica,sans-Serif" font-size="8.00" fill="#555555">flowPortalTracker</text>
</g>
<!-- Tutor_School_Request_Screen_School_Submission_Confirmation_from_screen_input -->
<g id="Tutor_School_Request_Screen_School_Submission_Confirmation_from_screen_input" class="node n&#45;screen">
<title>Tutor_School_Request_Screen_School_Submission_Confirmation_from_screen_input</title>
<path fill="#e3f2fd" stroke="#1565c0" stroke-width="2.6" d="M253.44,-48.08C253.44,-48.08 144.57,-48.08 144.57,-48.08 138.57,-48.08 132.57,-42.08 132.57,-36.08 132.57,-36.08 132.57,-12 132.57,-12 132.57,-6 138.57,0 144.57,0 144.57,0 253.44,0 253.44,0 259.44,0 265.44,-6 265.44,-12 265.44,-12 265.44,-36.08 265.44,-36.08 265.44,-42.08 259.44,-48.08 253.44,-48.08"/>
<text xml:space="preserve" text-anchor="start" x="182.33" y="-36.84" font-family="Helvetica,sans-Serif" font-size="8.00" fill="#555555">SCREEN</text>
<text xml:space="preserve" text-anchor="start" x="156.48" y="-27.04" font-family="Helvetica,sans-Serif" font-size="10.00">School Submission</text>
<text xml:space="preserve" text-anchor="start" x="141.21" y="-17.04" font-family="Helvetica,sans-Serif" font-size="10.00">Confirmation (from screen</text>
<text xml:space="preserve" text-anchor="start" x="186.49" y="-7.04" font-family="Helvetica,sans-Serif" font-size="10.00">input)</text>
</g>
<!-- Tutor_School_Request_Screen_Copy_1_of_Update_Tutor_School_Details -->
<g id="Tutor_School_Request_Screen_Copy_1_of_Update_Tutor_School_Details" class="node n&#45;write">
<title>Tutor_School_Request_Screen_Copy_1_of_Update_Tutor_School_Details</title>
<path fill="#c8e6c9" stroke="#1b5e20" stroke-width="1.2" d="M257,-132.68C257,-135.31 231.01,-137.44 199,-137.44 167,-137.44 141,-135.31 141,-132.68 141,-132.68 141,-89.84 141,-89.84 141,-87.21 167,-85.08 199,-85.08 231.01,-85.08 257,-87.21 257,-89.84 257,-89.84 257,-132.68 257,-132.68"/>
<path fill="none" stroke="#1b5e20" stroke-width="1.2" d="M257,-132.68C257,-130.05 231.01,-127.92 199,-127.92 167,-127.92 141,-130.05 141,-132.68"/>
<text xml:space="preserve" text-anchor="start" x="153.14" y="-117.26" font-family="Helvetica,sans-Serif" font-size="10.00">Update Tutor School</text>
<text xml:space="preserve" text-anchor="start" x="183.72" y="-107.26" font-family="Helvetica,sans-Serif" font-size="10.00">Details</text>
<text xml:space="preserve" text-anchor="start" x="149.64" y="-99.06" font-family="Helvetica,sans-Serif" font-size="8.00" fill="#555555">update Tutor School Details</text>
</g>
<!-- Tutor_School_Request_Screen_Check_Form_Complete_Checkbox&#45;&gt;Tutor_School_Request_Screen_Copy_1_of_Update_Tutor_School_Details -->
<g id="edge5" class="edge">
<title>Tutor_School_Request_Screen_Check_Form_Complete_Checkbox&#45;&gt;Tutor_School_Request_Screen_Copy_1_of_Update_Tutor_School_Details</title>
<path fill="none" stroke="#607d8b" d="M160.62,-188.33C167.22,-175.26 175.06,-159.72 181.92,-146.12"/>
<polygon fill="#607d8b" stroke="#607d8b" points="184.27,-147.68 185.37,-139.28 179.27,-145.16 184.27,-147.68"/>
<text xml:space="preserve" text-anchor="middle" x="206.68" y="-158.14" font-family="Helvetica,sans-Serif" font-size="9.00">Form Complete</text>
</g>
<!-- Tutor_School_Request_Screen_Update_Tutor_School_Details -->
<g id="Tutor_School_Request_Screen_Update_Tutor_School_Details" class="node n&#45;write">
<title>Tutor_School_Request_Screen_Update_Tutor_School_Details</title>
<path fill="#c8e6c9" stroke="#1b5e20" stroke-width="1.2" d="M116,-132.68C116,-135.31 90.01,-137.44 58,-137.44 26,-137.44 0,-135.31 0,-132.68 0,-132.68 0,-89.84 0,-89.84 0,-87.21 26,-85.08 58,-85.08 90.01,-85.08 116,-87.21 116,-89.84 116,-89.84 116,-132.68 116,-132.68"/>
<path fill="none" stroke="#1b5e20" stroke-width="1.2" d="M116,-132.68C116,-130.05 90.01,-127.92 58,-127.92 26,-127.92 0,-130.05 0,-132.68"/>
<text xml:space="preserve" text-anchor="start" x="12.14" y="-117.26" font-family="Helvetica,sans-Serif" font-size="10.00">Update Tutor School</text>
<text xml:space="preserve" text-anchor="start" x="42.72" y="-107.26" font-family="Helvetica,sans-Serif" font-size="10.00">Details</text>
<text xml:space="preserve" text-anchor="start" x="8.64" y="-99.06" font-family="Helvetica,sans-Serif" font-size="8.00" fill="#555555">update Tutor School Details</text>
</g>
<!-- Tutor_School_Request_Screen_Check_Form_Complete_Checkbox&#45;&gt;Tutor_School_Request_Screen_Update_Tutor_School_Details -->
<g id="edge4" class="edge">
<title>Tutor_School_Request_Screen_Check_Form_Complete_Checkbox&#45;&gt;Tutor_School_Request_Screen_Update_Tutor_School_Details</title>
<path fill="none" stroke="#607d8b" d="M123.8,-190.81C112.16,-176.91 97.79,-159.77 85.46,-145.04"/>
<polygon fill="#607d8b" stroke="#607d8b" points="87.85,-143.53 80.56,-139.2 83.55,-147.13 87.85,-143.53"/>
<text xml:space="preserve" text-anchor="middle" x="121.26" y="-158.14" font-family="Helvetica,sans-Serif" font-size="9.00">otherwise</text>
</g>
<!-- Tutor_School_Request_Screen_Check_if_Approval_Submitted -->
<g id="Tutor_School_Request_Screen_Check_if_Approval_Submitted" class="node n&#45;decision">
<title>Tutor_School_Request_Screen_Check_if_Approval_Submitted</title>
<polygon fill="#fff8e1" stroke="#f9a825" stroke-width="1.2" points="655,-367.36 559.35,-333.28 655,-299.2 750.65,-333.28 655,-367.36"/>
<text xml:space="preserve" text-anchor="start" x="615.82" y="-335.28" font-family="Helvetica,sans-Serif" font-size="10.00">Check if Approval</text>
<text xml:space="preserve" text-anchor="start" x="632.49" y="-323.28" font-family="Helvetica,sans-Serif" font-size="10.00">Submitted</text>
</g>
<!-- Tutor_School_Request_Screen_Check_if_Approval_Submitted&#45;&gt;Tutor_School_Request_Screen_Copy_1_of_Approval_Confirmation -->
<g id="edge6" class="edge">
<title>Tutor_School_Request_Screen_Check_if_Approval_Submitted&#45;&gt;Tutor_School_Request_Screen_Copy_1_of_Approval_Confirmation</title>
<path fill="none" stroke="#607d8b" d="M615.12,-312.86C577.67,-294.63 521.26,-267.16 479.24,-246.7"/>
<polygon fill="#607d8b" stroke="#607d8b" points="480.56,-244.23 472.14,-243.24 478.1,-249.26 480.56,-244.23"/>
<text xml:space="preserve" text-anchor="middle" x="565.22" y="-273.1" font-family="Helvetica,sans-Serif" font-size="9.00">otherwise</text>
</g>
<!-- Tutor_School_Request_Screen_Check_if_Approval_Submitted&#45;&gt;Tutor_School_Request_Screen_School_Approval_Screen -->
<g id="edge7" class="edge">
<title>Tutor_School_Request_Screen_Check_if_Approval_Submitted&#45;&gt;Tutor_School_Request_Screen_School_Approval_Screen</title>
<path fill="none" stroke="#607d8b" d="M655,-298.69C655,-281.89 655,-261.83 655,-246.09"/>
<polygon fill="#607d8b" stroke="#607d8b" points="657.8,-246.42 655,-238.42 652.2,-246.42 657.8,-246.42"/>
<text xml:space="preserve" text-anchor="middle" x="683.52" y="-273.1" font-family="Helvetica,sans-Serif" font-size="9.00">Not Submitted</text>
</g>
<!-- Tutor_School_Request_Screen_Check_if_School_Schedule_Request_Complete -->
<g id="Tutor_School_Request_Screen_Check_if_School_Schedule_Request_Complete" class="node n&#45;decision">
<title>Tutor_School_Request_Screen_Check_if_School_Schedule_Request_Complete</title>
<polygon fill="#fff8e1" stroke="#f9a825" stroke-width="1.2" points="470,-506.32 371,-460.24 470,-414.16 569,-460.24 470,-506.32"/>
<text xml:space="preserve" text-anchor="start" x="435.26" y="-468.24" font-family="Helvetica,sans-Serif" font-size="10.00">Check if School</text>
<text xml:space="preserve" text-anchor="start" x="429.14" y="-456.24" font-family="Helvetica,sans-Serif" font-size="10.00">Schedule Request</text>
<text xml:space="preserve" text-anchor="start" x="448.6" y="-444.24" font-family="Helvetica,sans-Serif" font-size="10.00">Complete</text>
</g>
<!-- Tutor_School_Request_Screen_Check_if_School_Schedule_Request_Complete&#45;&gt;Tutor_School_Request_Screen_Copy_1_of_Approval_Confirmation -->
<g id="edge10" class="edge">
<title>Tutor_School_Request_Screen_Check_if_School_Schedule_Request_Complete&#45;&gt;Tutor_School_Request_Screen_Copy_1_of_Approval_Confirmation</title>
<path fill="none" stroke="#607d8b" d="M395.99,-448.1C347.98,-436.62 288.94,-413.53 258.66,-367.36 242.05,-342.03 242.59,-324.88 258.66,-299.2 277.59,-268.96 311.6,-249.87 343.79,-237.98"/>
<polygon fill="#607d8b" stroke="#607d8b" points="344.32,-240.76 350.93,-235.46 342.46,-235.48 344.32,-240.76"/>
<text xml:space="preserve" text-anchor="middle" x="325.83" y="-330.58" font-family="Helvetica,sans-Serif" font-size="9.00">School Status = School Approved</text>
</g>
<!-- Tutor_School_Request_Screen_Check_if_School_Schedule_Request_Complete&#45;&gt;Tutor_School_Request_Screen_School_Information -->
<g id="edge11" class="edge">
<title>Tutor_School_Request_Screen_Check_if_School_Schedule_Request_Complete&#45;&gt;Tutor_School_Request_Screen_School_Information</title>
<path fill="none" stroke="#607d8b" d="M383.13,-454.06C298.51,-447.01 178.37,-431.04 148.48,-396.16 140.36,-386.69 139.09,-373.1 140.13,-361.06"/>
<polygon fill="#607d8b" stroke="#607d8b" points="142.88,-361.66 141.17,-353.35 137.33,-360.91 142.88,-361.66"/>
<text xml:space="preserve" text-anchor="middle" x="187.74" y="-388.06" font-family="Helvetica,sans-Serif" font-size="9.00">Form Not Complete</text>
</g>
<!-- Tutor_School_Request_Screen_Check_if_School_Schedule_Request_Complete&#45;&gt;Tutor_School_Request_Screen_School_Submission_Confirmation_from_saved_school_record -->
<g id="edge12" class="edge">
<title>Tutor_School_Request_Screen_Check_if_School_Schedule_Request_Complete&#45;&gt;Tutor_School_Request_Screen_School_Submission_Confirmation_from_saved_school_record</title>
<path fill="none" stroke="#607d8b" d="M470,-413.77C470,-399.96 470,-384.94 470,-371.72"/>
<polygon fill="#607d8b" stroke="#607d8b" points="472.8,-371.97 470,-363.97 467.2,-371.97 472.8,-371.97"/>
<text xml:space="preserve" text-anchor="middle" x="501.01" y="-388.06" font-family="Helvetica,sans-Serif" font-size="9.00">Form Complete</text>
</g>
<!-- Tutor_School_Request_Screen_Check_if_School_Schedule_Request_Complete&#45;&gt;Tutor_School_Request_Screen_Check_if_Approval_Submitted -->
<g id="edge9" class="edge">
<title>Tutor_School_Request_Screen_Check_if_School_Schedule_Request_Complete&#45;&gt;Tutor_School_Request_Screen_Check_if_Approval_Submitted</title>
<path fill="none" stroke="#607d8b" d="M509.69,-432.43C540.72,-411.48 583.66,-382.47 614.82,-361.42"/>
<polygon fill="#607d8b" stroke="#607d8b" points="616.15,-363.9 621.21,-357.1 613.02,-359.26 616.15,-363.9"/>
<text xml:space="preserve" text-anchor="middle" x="633.23" y="-388.06" font-family="Helvetica,sans-Serif" font-size="9.00">School Status = Scheduled</text>
</g>
<!-- Tutor_School_Request_Screen_Fault_Path -->
<g id="Tutor_School_Request_Screen_Fault_Path" class="node n&#45;subflow">
<title>Tutor_School_Request_Screen_Fault_Path</title>
<path fill="#ede7f6" stroke="#5e35b1" stroke-width="2.6" d="M887.96,-352.32C887.96,-352.32 792.05,-352.32 792.05,-352.32 786.05,-352.32 780.05,-346.32 780.05,-340.32 780.05,-340.32 780.05,-326.24 780.05,-326.24 780.05,-320.24 786.05,-314.24 792.05,-314.24 792.05,-314.24 887.96,-314.24 887.96,-314.24 893.96,-314.24 899.96,-320.24 899.96,-326.24 899.96,-326.24 899.96,-340.32 899.96,-340.32 899.96,-346.32 893.96,-352.32 887.96,-352.32"/>
<path fill="none" stroke="#5e35b1" stroke-width="2.6" d="M891.96,-356.32C891.96,-356.32 788.05,-356.32 788.05,-356.32 782.05,-356.32 776.05,-350.32 776.05,-344.32 776.05,-344.32 776.05,-322.24 776.05,-322.24 776.05,-316.24 782.05,-310.24 788.05,-310.24 788.05,-310.24 891.96,-310.24 891.96,-310.24 897.96,-310.24 903.96,-316.24 903.96,-322.24 903.96,-322.24 903.96,-344.32 903.96,-344.32 903.96,-350.32 897.96,-356.32 891.96,-356.32"/>
<text xml:space="preserve" text-anchor="start" x="820.22" y="-341.08" font-family="Helvetica,sans-Serif" font-size="8.00" fill="#555555">SUBFLOW</text>
<text xml:space="preserve" text-anchor="start" x="788.69" y="-331.28" font-family="Helvetica,sans-Serif" font-size="10.00">Customer Portal | Fault</text>
<text xml:space="preserve" text-anchor="start" x="812.48" y="-321.28" font-family="Helvetica,sans-Serif" font-size="10.00">Path Screen</text>
</g>
<!-- Tutor_School_Request_Screen_Check_if_School_Schedule_Request_Complete&#45;&gt;Tutor_School_Request_Screen_Fault_Path -->
<g id="edge8" class="edge">
<title>Tutor_School_Request_Screen_Check_if_School_Schedule_Request_Complete&#45;&gt;Tutor_School_Request_Screen_Fault_Path</title>
<path fill="none" stroke="#607d8b" d="M533.56,-443.34C578.51,-431.59 639.96,-414.51 693,-396.16 724.79,-385.16 731.99,-380.4 763,-367.36 767.81,-365.34 772.79,-363.23 777.79,-361.11"/>
<polygon fill="#607d8b" stroke="#607d8b" points="778.54,-363.83 784.8,-358.11 776.35,-358.68 778.54,-363.83"/>
<text xml:space="preserve" text-anchor="middle" x="740.51" y="-388.06" font-family="Helvetica,sans-Serif" font-size="9.00">otherwise</text>
</g>
<!-- Tutor_School_Request_Screen_Get_District_Tutor_District_Details -->
<g id="Tutor_School_Request_Screen_Get_District_Tutor_District_Details" class="node n&#45;read">
<title>Tutor_School_Request_Screen_Get_District_Tutor_District_Details</title>
<path fill="#e0f2f1" stroke="#00796b" stroke-width="1.2" d="M521.32,-590.92C521.32,-593.55 498.32,-595.68 470,-595.68 441.69,-595.68 418.68,-593.55 418.68,-590.92 418.68,-590.92 418.68,-548.08 418.68,-548.08 418.68,-545.45 441.69,-543.32 470,-543.32 498.32,-543.32 521.32,-545.45 521.32,-548.08 521.32,-548.08 521.32,-590.92 521.32,-590.92"/>
<path fill="none" stroke="#00796b" stroke-width="1.2" d="M521.32,-590.92C521.32,-588.29 498.32,-586.16 470,-586.16 441.69,-586.16 418.68,-588.29 418.68,-590.92"/>
<text xml:space="preserve" text-anchor="start" x="430.55" y="-575.5" font-family="Helvetica,sans-Serif" font-size="10.00">Get District (Tutor</text>
<text xml:space="preserve" text-anchor="start" x="436.39" y="-565.5" font-family="Helvetica,sans-Serif" font-size="10.00">District Details)</text>
<text xml:space="preserve" text-anchor="start" x="427.32" y="-557.3" font-family="Helvetica,sans-Serif" font-size="8.00" fill="#555555">get Tutor District Details</text>
</g>
<!-- Tutor_School_Request_Screen_Get_District_Tutor_District_Details&#45;&gt;Tutor_School_Request_Screen_Check_if_School_Schedule_Request_Complete -->
<g id="edge13" class="edge">
<title>Tutor_School_Request_Screen_Get_District_Tutor_District_Details&#45;&gt;Tutor_School_Request_Screen_Check_if_School_Schedule_Request_Complete</title>
<path fill="none" stroke="#607d8b" d="M470,-542.81C470,-534.72 470,-525.46 470,-516.14"/>
<polygon fill="#607d8b" stroke="#607d8b" points="472.8,-516.36 470,-508.36 467.2,-516.36 472.8,-516.36"/>
</g>
<!-- Tutor_School_Request_Screen_Get_School_Tutor_School_Details&#45;&gt;Tutor_School_Request_Screen_Get_District_Tutor_District_Details -->
<g id="edge14" class="edge">
<title>Tutor_School_Request_Screen_Get_School_Tutor_School_Details&#45;&gt;Tutor_School_Request_Screen_Get_District_Tutor_District_Details</title>
<path fill="none" stroke="#607d8b" d="M470,-632.12C470,-623.77 470,-614.36 470,-605.45"/>
<polygon fill="#607d8b" stroke="#607d8b" points="472.8,-605.57 470,-597.57 467.2,-605.57 472.8,-605.57"/>
</g>
<!-- Tutor_School_Request_Screen_Copy_1_of_Update_Tutor_School_Details&#45;&gt;Tutor_School_Request_Screen_School_Submission_Confirmation_from_screen_input -->
<g id="edge15" class="edge">
<title>Tutor_School_Request_Screen_Copy_1_of_Update_Tutor_School_Details&#45;&gt;Tutor_School_Request_Screen_School_Submission_Confirmation_from_screen_input</title>
<path fill="none" stroke="#607d8b" d="M199,-84.69C199,-76.5 199,-67.3 199,-58.62"/>
<polygon fill="#607d8b" stroke="#607d8b" points="201.8,-58.64 199,-50.64 196.2,-58.64 201.8,-58.64"/>
</g>
<!-- Tutor_School_Request_Screen_Update_Status_on_School_by_Grade&#45;&gt;Tutor_School_Request_Screen_Approval_Confirmation -->
<g id="edge16" class="edge">
<title>Tutor_School_Request_Screen_Update_Status_on_School_by_Grade&#45;&gt;Tutor_School_Request_Screen_Approval_Confirmation</title>
<path fill="none" stroke="#607d8b" d="M655,-84.69C655,-74.88 655,-63.63 655,-53.56"/>
<polygon fill="#607d8b" stroke="#607d8b" points="657.8,-53.87 655,-45.87 652.2,-53.87 657.8,-53.87"/>
</g>
<!-- Tutor_School_Request_Screen_Update_Tutor_School_Details&#45;&gt;Tutor_School_Request_Screen_saveReminder -->
<g id="edge17" class="edge">
<title>Tutor_School_Request_Screen_Update_Tutor_School_Details&#45;&gt;Tutor_School_Request_Screen_saveReminder</title>
<path fill="none" stroke="#607d8b" d="M58,-84.69C58,-74.59 58,-62.95 58,-52.65"/>
<polygon fill="#607d8b" stroke="#607d8b" points="60.8,-52.8 58,-44.8 55.2,-52.8 60.8,-52.8"/>
</g>
</g>
</svg>
